<svg width="750" height="750" viewBox="0 0 750 750" fill="none" xmlns="http://www.w3.org/2000/svg" role="img" aria-labelledby="logoTitle">
<title id="logoTitle">Voxhold logo</title>
<circle cx="375" cy="375" r="375" fill="black"/>
<path d="M317.346 195.298C269.897 195.589 222.447 195.557 175 195.203L375.139 595L554.535 236.448C561.294 222.911 568.543 208.887 575 195.247C549.72 195.291 524.296 195.211 498.842 195.13C454.801 194.99 410.669 194.851 367.034 195.355C373.811 209.725 381.409 224.112 388.564 238.338L434.304 329.186L449.9 360.268C453.127 366.67 457.568 374.905 459.989 381.471C451.471 397.756 442.686 416.073 434.338 432.732C424.987 413.022 415.015 393.589 405.381 374.007L356.892 275.279L332.672 225.997C328.033 216.45 322.574 204.331 317.346 195.298Z" fill="#FEFEFE"/>
<path d="M274.429 215.838C251.956 215.664 229.002 215.487 207.597 216.081C209.708 222.167 218.738 239.228 221.969 245.778L254.741 312.166C279.757 363.309 305.217 414.213 331.116 464.87C340.984 484.553 350.994 504.154 361.147 523.677C365.022 531.212 371.059 544.087 375.151 550.981C380.486 540.622 386.362 529.642 391.368 519.187C401.602 498.17 412.974 476.517 422.677 455.411C397.571 403.367 372.071 351.534 346.179 299.917C332.393 272.159 319.148 243.556 305.248 216.001C295.215 215.999 284.874 215.919 274.429 215.838Z" fill="black"/>
<path d="M440.234 215.989C427.114 215.93 413.867 215.869 400.996 216.124L400.478 216.679C401.608 220.812 407.333 230.921 409.27 235.037C419.744 257.304 431.384 278.932 442.439 300.818L461.253 338.488C463.747 343.504 468.582 353.924 471.343 358.129C480.107 343.576 487.975 325.062 496.049 309.727L524.296 253.505C530.358 241.288 536.438 227.941 542.954 216.129L457.476 216.041C451.783 216.042 446.021 216.016 440.234 215.989Z" fill="black"/>
</svg>
